<svg width="29" height="29" viewBox="0 0 29 29" fill="none" xmlns="http://www.w3.org/2000/svg">
<path d="M8 12.0117C9.10457 12.0117 10 11.1163 10 10.0117C10 8.90715 9.10457 8.01172 8 8.01172C6.89543 8.01172 6 8.90715 6 10.0117C6 11.1163 6.89543 12.0117 8 12.0117Z" fill="white"/>
<path d="M14 9.01172C15.1046 9.01172 16 8.11629 16 7.01172C16 5.90715 15.1046 5.01172 14 5.01172C12.8954 5.01172 12 5.90715 12 7.01172C12 8.11629 12.8954 9.01172 14 9.01172Z" fill="white"/>
<path d="M20 12.0117C21.1046 12.0117 22 11.1163 22 10.0117C22 8.90715 21.1046 8.01172 20 8.01172C18.8954 8.01172 18 8.90715 18 10.0117C18 11.1163 18.8954 12.0117 20 12.0117Z" fill="white"/>
<path d="M21 18.0117C22.1046 18.0117 23 17.1163 23 16.0117C23 14.9071 22.1046 14.0117 21 14.0117C19.8954 14.0117 19 14.9071 19 16.0117C19 17.1163 19.8954 18.0117 21 18.0117Z" fill="white"/>
<path d="M17 23.0117C18.1046 23.0117 19 22.1163 19 21.0117C19 19.9071 18.1046 19.0117 17 19.0117C15.8954 19.0117 15 19.9071 15 21.0117C15 22.1163 15.8954 23.0117 17 23.0117Z" fill="white"/>
<path d="M14.54 0.0104189C12.6566 -0.0622827 10.7778 0.246081 9.01645 0.917024C7.25507 1.58797 5.64731 2.60767 4.28955 3.915C2.93179 5.22234 1.852 6.79038 1.11491 8.52512C0.377813 10.2599 -0.00139876 12.1256 3.87686e-06 14.0104C-4.57387e-05 14.7517 0.170901 15.4831 0.499549 16.1476C0.828198 16.8121 1.30569 17.3918 1.8949 17.8417C2.4841 18.2916 3.16914 18.5995 3.89674 18.7415C4.62433 18.8835 5.37488 18.8557 6.09 18.6604L7.21 18.3504C7.65555 18.2288 8.12316 18.2117 8.5764 18.3004C9.02964 18.3892 9.45627 18.5813 9.82306 18.862C10.1898 19.1426 10.4869 19.5042 10.691 19.9185C10.8952 20.3328 11.0009 20.7886 11 21.2504V25.0104C11 25.8061 11.3161 26.5691 11.8787 27.1317C12.4413 27.6943 13.2044 28.0104 14 28.0104C15.8848 28.0118 17.7506 27.6326 19.4853 26.8955C21.22 26.1584 22.7881 25.0786 24.0954 23.7209C25.4028 22.3631 26.4225 20.7553 27.0934 18.994C27.7643 17.2326 28.0727 15.3539 28 13.4704C27.8549 9.94709 26.3902 6.60715 23.8968 4.11367C21.4033 1.62019 18.0633 0.155513 14.54 0.0104189ZM22.65 22.3204C21.5334 23.4895 20.1909 24.4194 18.7039 25.0537C17.217 25.688 15.6166 26.0135 14 26.0104C13.7348 26.0104 13.4804 25.9051 13.2929 25.7175C13.1054 25.53 13 25.2756 13 25.0104V21.2504C13 19.9243 12.4732 18.6526 11.5355 17.7149C10.5979 16.7772 9.32609 16.2504 8 16.2504C7.55065 16.2512 7.1034 16.3117 6.67 16.4304L5.55 16.7404C5.13168 16.8525 4.69316 16.8668 4.26844 16.7821C3.84373 16.6974 3.44422 16.516 3.10092 16.252C2.75761 15.988 2.47972 15.6484 2.2888 15.2597C2.09788 14.871 1.99906 14.4435 2 14.0104C1.99876 12.3942 2.32402 10.7944 2.95625 9.307C3.58848 7.81959 4.51467 6.47522 5.67923 5.35455C6.8438 4.23387 8.22274 3.36 9.73334 2.78535C11.2439 2.2107 12.855 1.94712 14.47 2.01042C17.4772 2.16704 20.3198 3.43209 22.4491 5.56137C24.5783 7.69066 25.8434 10.5332 26 13.5404C26.0688 15.1564 25.8072 16.7694 25.2312 18.2808C24.6552 19.7922 23.7769 21.1702 22.65 22.3304V22.3204Z" fill="white"/>
</svg>
