<svg width="28" height="28" viewBox="0 0 28 28" fill="none" xmlns="http://www.w3.org/2000/svg">
<path d="M28 11C28 9.55546 27.7155 8.12506 27.1627 6.79048C26.6099 5.4559 25.7996 4.24327 24.7782 3.22183C23.7567 2.20038 22.5441 1.39013 21.2095 0.837325C19.8749 0.284523 18.4445 0 17 0H9C6.61305 0 4.32387 0.948211 2.63604 2.63604C0.948211 4.32387 0 6.61305 0 9V12C0 13.3261 0.526784 14.5979 1.46447 15.5355C2.40215 16.4732 3.67392 17 5 17H6.1C6.33053 18.1294 6.94418 19.1444 7.8371 19.8733C8.73001 20.6022 9.84735 21.0002 11 21H12.38L16.38 28L18.11 27L14.11 20.11C13.9491 19.7857 13.7032 19.5112 13.3985 19.3157C13.0938 19.1203 12.7418 19.0111 12.38 19H11C10.2044 19 9.44129 18.6839 8.87868 18.1213C8.31607 17.5587 8 16.7956 8 16C8 15.2044 8.31607 14.4413 8.87868 13.8787C9.44129 13.3161 10.2044 13 11 13H12V11H11C9.84735 10.9998 8.73001 11.3978 7.8371 12.1267C6.94418 12.8556 6.33053 13.8706 6.1 15H5C4.20435 15 3.44129 14.6839 2.87868 14.1213C2.31607 13.5587 2 12.7956 2 12V10H4C4.79565 10 5.55871 9.68393 6.12132 9.12132C6.68393 8.55871 7 7.79565 7 7V6H5V7C5 7.26522 4.89464 7.51957 4.70711 7.70711C4.51957 7.89464 4.26522 8 4 8H2.08C2.32026 6.3354 3.15181 4.81295 4.42253 3.71118C5.69324 2.60941 7.31815 2.00197 9 2H15V4C15 4.26522 14.8946 4.51957 14.7071 4.70711C14.5196 4.89464 14.2652 5 14 5H12V7H14C14.7956 7 15.5587 6.68393 16.1213 6.12132C16.6839 5.55871 17 4.79565 17 4V2C18.6741 2.00228 20.3143 2.47142 21.7364 3.3547C23.1584 4.23797 24.306 5.50037 25.05 7H24C23.2044 7 22.4413 7.31607 21.8787 7.87868C21.3161 8.44129 21 9.20435 21 10V11H23V10C23 9.73478 23.1054 9.48043 23.2929 9.29289C23.4804 9.10536 23.7348 9 24 9H25.77C25.9233 9.65561 26.0004 10.3267 26 11V12C26 13.3261 25.4732 14.5979 24.5355 15.5355C23.5979 16.4732 22.3261 17 21 17H18V19H21C22.038 18.9986 23.0628 18.7663 24 18.32V19C24 19.7956 23.6839 20.5587 23.1213 21.1213C22.5587 21.6839 21.7956 22 21 22H20V24H21C22.3261 24 23.5979 23.4732 24.5355 22.5355C25.4732 21.5979 26 20.3261 26 19V16.89C27.2798 15.5838 27.9977 13.8287 28 12V11Z" fill="white"/>
</svg>
