<svg width="29" height="27" viewBox="0 0 29 27" fill="none" xmlns="http://www.w3.org/2000/svg">
<path d="M27.99 18L28.33 16L23.16 15.15V11C23.16 10.92 23.16 10.85 23.16 10.77L28.22 9.41L27.71 7.48L22.88 8.77C22.5511 7.52687 21.9597 6.36865 21.1455 5.37334C20.3313 4.37803 19.3133 3.56875 18.16 3V0H16.16V2.23C14.8443 1.92331 13.4757 1.92331 12.16 2.23V0H10.16V3C9.0032 3.57521 7.9838 4.39272 7.17107 5.39698C6.35835 6.40123 5.77136 7.56869 5.45 8.82L0.62 7.48L0.16 9.41L5.16 10.77C5.16 10.85 5.16 10.92 5.16 11V15.15L0 16L0.32 18L5.16 17.18C5.18284 18.414 5.46209 19.6297 5.98 20.75L1.45 25.29L2.87 26.71L7.06 22.51C7.90154 23.5903 8.97851 24.4643 10.2089 25.0655C11.4393 25.6667 12.7906 25.9792 14.16 25.9792C15.5294 25.9792 16.8807 25.6667 18.1111 25.0655C19.3415 24.4643 20.4185 23.5903 21.26 22.51L25.45 26.71L26.87 25.29L22.33 20.75C22.8514 19.6305 23.134 18.4147 23.16 17.18L27.99 18ZM13.16 23.92C11.4954 23.6797 9.97295 22.8482 8.87118 21.5775C7.76941 20.3068 7.16197 18.6818 7.16 17V11H13.16V23.92ZM7.45 9C7.87971 7.55396 8.76506 6.28543 9.97418 5.38336C11.1833 4.4813 12.6515 3.99397 14.16 3.99397C15.6685 3.99397 17.1367 4.4813 18.3458 5.38336C19.5549 6.28543 20.4403 7.55396 20.87 9H7.45ZM21.16 17C21.158 18.6818 20.5506 20.3068 19.4488 21.5775C18.347 22.8482 16.8246 23.6797 15.16 23.92V11H21.16V17Z" fill="white"/>
</svg>
