<svg width="20" height="28" viewBox="0 0 20 28" fill="none" xmlns="http://www.w3.org/2000/svg">
<path d="M16.9999 20.9995H16.8684L17.8319 19.5542C17.9414 19.3899 17.9998 19.1969 17.9999 18.9995V10C17.9999 0.1142 10.0799 0 9.9999 0C9.73477 -3.31412e-08 9.48049 0.105288 9.29297 0.292717C9.10544 0.480145 9.00003 0.73437 8.9999 0.9995L8.9994 2.9995H7.9999C7.79148 2.99932 7.58827 3.06455 7.4189 3.186L0.418897 8.186C0.244841 8.31028 0.115215 8.4871 0.0490525 8.69048C-0.0171099 8.89386 -0.0163229 9.1131 0.0512974 9.316L1.0513 12.316C1.12502 12.5383 1.27464 12.7276 1.47393 12.8508C1.67322 12.9739 1.90947 13.0229 2.1413 12.9893L7.0113 12.2935L3.1518 18.4695C3.04978 18.6327 2.99703 18.8219 2.99988 19.0144C3.00274 19.2068 3.06108 19.3944 3.1679 19.5545L4.1314 20.9995H3.9999C3.20452 21.0004 2.44196 21.3167 1.87954 21.8791C1.31712 22.4416 1.00077 23.2041 0.999897 23.9995V27.9995H19.9999V23.9995C19.999 23.2041 19.6827 22.4416 19.1203 21.8791C18.5578 21.3167 17.7953 21.0004 16.9999 20.9995V20.9995ZM9.848 11.5295C9.94906 11.3679 10.0018 11.1807 10 10.9901C9.99828 10.7995 9.94207 10.6133 9.83803 10.4536C9.73399 10.2939 9.58647 10.1672 9.41283 10.0885C9.2392 10.0098 9.04669 9.98241 8.858 10.0095L2.6842 10.8914L2.1817 9.3836L8.3199 5H9.9989C10.264 5 10.5183 4.89471 10.7058 4.70728C10.8933 4.51986 10.9988 4.26563 10.9989 4.0005L10.9999 2.1284C12.5012 2.4631 15.2166 3.6695 15.8599 7.9995H12.9999V9.9995H15.9999V11.9995H12.9999V13.9995H15.9999V15.9995H12.9999V17.9995H15.9999V18.6968L14.4647 20.9995H6.5347L5.1899 18.9819L9.848 11.5295ZM17.9999 25.9995H2.9999V23.9995C3.00014 23.7344 3.10557 23.4801 3.29305 23.2927C3.48054 23.1052 3.73475 22.9997 3.9999 22.9995H16.9999C17.2651 22.9997 17.5193 23.1051 17.7068 23.2926C17.8943 23.4801 17.9997 23.7343 17.9999 23.9995V25.9995Z" fill="white"/>
</svg>
