<svg width="28" height="22" viewBox="0 0 28 22" fill="none" xmlns="http://www.w3.org/2000/svg">
<path d="M24 5H17V7H24V5Z" fill="white"/>
<path d="M24 10H17V12H24V10Z" fill="white"/>
<path d="M24 15H17V17H24V15Z" fill="white"/>
<path d="M11 5H4V7H11V5Z" fill="white"/>
<path d="M11 10H4V12H11V10Z" fill="white"/>
<path d="M11 15H4V17H11V15Z" fill="white"/>
<path d="M26 0H2C1.46973 0.000529477 0.961329 0.211413 0.586371 0.586371C0.211413 0.961329 0.000529477 1.46973 0 2V20C0.000529477 20.5303 0.211413 21.0387 0.586371 21.4136C0.961329 21.7886 1.46973 21.9995 2 22H26C26.5303 21.9995 27.0387 21.7886 27.4136 21.4136C27.7886 21.0387 27.9995 20.5303 28 20V2C27.9995 1.46973 27.7886 0.961329 27.4136 0.586371C27.0387 0.211413 26.5303 0.000529477 26 0ZM2 2H13V20H2V2ZM15 20V2H26V20H15Z" fill="white"/>
</svg>
