<svg width="24" height="24" viewBox="0 0 24 24" fill="none" xmlns="http://www.w3.org/2000/svg">
<path d="M12 24C9.62663 24 7.30655 23.2962 5.33316 21.9776C3.35977 20.6591 1.8217 18.7849 0.913451 16.5922C0.00519943 14.3995 -0.232441 11.9867 0.230582 9.65892C0.693605 7.33115 1.83649 5.19295 3.51472 3.51472C5.19295 1.83649 7.33115 0.693605 9.65892 0.230582C11.9867 -0.232441 14.3995 0.00519943 16.5922 0.913451C18.7849 1.8217 20.6591 3.35977 21.9776 5.33316C23.2962 7.30655 24 9.62663 24 12C24 15.1826 22.7357 18.2348 20.4853 20.4853C18.2348 22.7357 15.1826 24 12 24ZM12 2.00001C10.0222 2.00001 8.08879 2.58649 6.4443 3.68531C4.79981 4.78412 3.51809 6.34591 2.76121 8.17317C2.00433 10.0004 1.8063 12.0111 2.19215 13.9509C2.578 15.8907 3.53041 17.6725 4.92894 19.0711C6.32746 20.4696 8.10929 21.422 10.0491 21.8079C11.9889 22.1937 13.9996 21.9957 15.8268 21.2388C17.6541 20.4819 19.2159 19.2002 20.3147 17.5557C21.4135 15.9112 22 13.9778 22 12C22 9.34784 20.9464 6.8043 19.0711 4.92894C17.1957 3.05357 14.6522 2.00001 12 2.00001Z" fill="white"/>
<path d="M12 18C10.8133 18 9.65328 17.6481 8.66658 16.9888C7.67989 16.3295 6.91085 15.3925 6.45673 14.2961C6.0026 13.1997 5.88378 11.9933 6.11529 10.8295C6.3468 9.66557 6.91825 8.59648 7.75736 7.75736C8.59648 6.91825 9.66557 6.3468 10.8295 6.11529C11.9933 5.88378 13.1997 6.0026 14.2961 6.45673C15.3925 6.91085 16.3295 7.67989 16.9888 8.66658C17.6481 9.65328 18 10.8133 18 12C18 13.5913 17.3679 15.1174 16.2426 16.2426C15.1174 17.3679 13.5913 18 12 18ZM12 8C11.2089 8 10.4355 8.2346 9.77772 8.67412C9.11993 9.11365 8.60723 9.73836 8.30448 10.4693C8.00173 11.2002 7.92252 12.0044 8.07686 12.7804C8.2312 13.5563 8.61216 14.269 9.17158 14.8284C9.73099 15.3878 10.4437 15.7688 11.2196 15.9231C11.9956 16.0775 12.7998 15.9983 13.5307 15.6955C14.2616 15.3928 14.8864 14.8801 15.3259 14.2223C15.7654 13.5645 16 12.7911 16 12C16 10.9391 15.5786 9.92172 14.8284 9.17158C14.0783 8.42143 13.0609 8 12 8Z" fill="white"/>
<path d="M12 14C13.1046 14 14 13.1046 14 12C14 10.8954 13.1046 10 12 10C10.8954 10 10 10.8954 10 12C10 13.1046 10.8954 14 12 14Z" fill="white"/>
</svg>
