<svg width="26" height="25" viewBox="0 0 26 25" fill="none" xmlns="http://www.w3.org/2000/svg">
<path d="M25.0013 12.598C25.0013 11.5846 24.9162 10.845 24.732 10.0781H12.7578V14.6523H19.7864C19.6448 15.789 18.8796 17.5009 17.179 18.6512L17.1552 18.8044L20.9412 21.6389L21.2035 21.6642C23.6125 19.5141 25.0013 16.3505 25.0013 12.598" fill="white"/>
<path d="M12.7526 24.6535C16.1961 24.6535 19.0869 23.5579 21.1984 21.668L17.1739 18.655C16.0969 19.3808 14.6515 19.8875 12.7526 19.8875C9.38004 19.8875 6.51758 17.7375 5.49719 14.7656L5.34763 14.7779L1.41086 17.7224L1.35938 17.8607C3.45662 21.887 7.76452 24.6535 12.7526 24.6535Z" fill="white"/>
<path d="M5.49817 14.765C5.22894 13.9981 5.07312 13.1763 5.07312 12.3272C5.07312 11.4781 5.22894 10.6564 5.48401 9.88947L5.47688 9.72614L1.49077 6.73438L1.36035 6.79433C0.49598 8.46516 0 10.3414 0 12.3272C0 14.313 0.49598 16.1892 1.36035 17.86L5.49817 14.765" fill="white"/>
<path d="M12.7526 4.76588C15.1475 4.76588 16.7629 5.76562 17.684 6.60109L21.2834 3.20467C19.0728 1.21887 16.1961 0 12.7526 0C7.76452 0 3.45662 2.7664 1.35938 6.79275L5.48303 9.88789C6.51758 6.91605 9.38004 4.76588 12.7526 4.76588" fill="white"/>
</svg>
