<svg width="24" height="24" viewBox="0 0 24 24" fill="none" xmlns="http://www.w3.org/2000/svg">
<path d="M15 24H9C8.46975 23.9994 7.9614 23.7885 7.58646 23.4135C7.21152 23.0386 7.00061 22.5302 7 22V17H2C1.46975 16.9994 0.9614 16.7885 0.586459 16.4135C0.211518 16.0386 0.000608734 15.5302 0 15V9C0.000529477 8.46973 0.211413 7.96133 0.586371 7.58637C0.961329 7.21141 1.46973 7.00053 2 7H7V2C7.00053 1.46973 7.21141 0.961329 7.58637 0.586371C7.96133 0.211413 8.46973 0.000529477 9 0H15C15.5302 0.000608734 16.0386 0.211518 16.4135 0.586459C16.7885 0.9614 16.9994 1.46975 17 2V7H22C22.5302 7.00061 23.0386 7.21152 23.4135 7.58646C23.7885 7.9614 23.9994 8.46975 24 9V15C23.9993 15.5302 23.7883 16.0385 23.4134 16.4134C23.0385 16.7883 22.5302 16.9993 22 17H17V22C16.9993 22.5302 16.7883 23.0385 16.4134 23.4134C16.0385 23.7883 15.5302 23.9993 15 24V24ZM2 9V15H9V22H15V15H22V9H15V2H9V9H2Z" fill="white"/>
</svg>
