<svg width="28" height="24" viewBox="0 0 28 24" fill="none" xmlns="http://www.w3.org/2000/svg">
<path d="M25.6343 21.9999L15.7888 1.10542C15.6218 0.771466 15.3646 0.490937 15.0464 0.295583C14.7282 0.100228 14.3617 -0.00215111 13.9883 3.42686e-05C13.6149 0.00221964 13.2496 0.108882 12.9337 0.307948C12.6178 0.507014 12.364 0.790534 12.2009 1.12642L2.3657 21.9999H0V23.9999H28V21.9999H25.6343ZM13.99 1.97892L18.9473 12.4999L17 13.7978L14 11.7978L11 13.7978L9.0449 12.4945L13.99 1.97892ZM8.1846 14.3246L11 16.202L14 14.202L17 16.202L19.8091 14.329L23.4233 21.9999H4.5752L8.1846 14.3246Z" fill="white"/>
</svg>
