<svg width="24" height="25" viewBox="0 0 24 25" fill="none" xmlns="http://www.w3.org/2000/svg">
<path d="M12 24.0078C9.82441 24.0078 7.69767 23.3627 5.88873 22.154C4.07979 20.9453 2.66989 19.2273 1.83733 17.2173C1.00477 15.2073 0.786929 12.9956 1.21137 10.8618C1.6358 8.72803 2.68345 6.76802 4.22183 5.22964C5.76021 3.69127 7.72022 2.64362 9.85401 2.21918C11.9878 1.79474 14.1995 2.01258 16.2095 2.84514C18.2195 3.67771 19.9375 5.0876 21.1462 6.89654C22.3549 8.70549 23 10.8322 23 13.0078C23 15.9252 21.8411 18.7231 19.7782 20.786C17.7153 22.8489 14.9174 24.0078 12 24.0078ZM12 4.00782C10.22 4.00782 8.47991 4.53566 6.99987 5.52459C5.51983 6.51352 4.36628 7.91913 3.68509 9.56367C3.0039 11.2082 2.82567 13.0178 3.17294 14.7636C3.5202 16.5095 4.37737 18.1131 5.63604 19.3718C6.89472 20.6305 8.49836 21.4876 10.2442 21.8349C11.99 22.1822 13.7996 22.0039 15.4442 21.3227C17.0887 20.6415 18.4943 19.488 19.4832 18.0079C20.4722 16.5279 21 14.7878 21 13.0078C21 10.6209 20.0518 8.33168 18.364 6.64386C16.6761 4.95603 14.387 4.00782 12 4.00782Z" fill="white"/>
<path d="M14.59 17.0078L11 13.4178V7.00781H13V12.5878L16 15.5978L14.59 17.0078Z" fill="white"/>
<path d="M3.58127 0.012779L0 3.60156L1.41569 5.01429L4.99697 1.42551L3.58127 0.012779Z" fill="white"/>
<path d="M20.4157 0.00133073L19 1.41406L22.5813 5.00285L23.997 3.59011L20.4157 0.00133073Z" fill="white"/>
</svg>
