<svg width="28" height="26" viewBox="0 0 28 26" fill="none" xmlns="http://www.w3.org/2000/svg">
<path d="M16.57 24C15.897 22.7251 14 18.2261 14 8V7.8687L15.1172 8.6133C16.0048 9.20369 16.7325 10.0045 17.2355 10.9444C17.7385 11.8843 18.0011 12.934 18 14H20C20.0015 12.6047 19.6577 11.2306 18.9994 10.0004C18.341 8.77017 17.3884 7.72195 16.2266 6.9492L14.8027 6H16.3335C17.8476 6.00287 19.3205 6.49382 20.5335 7.4L22.4 8.8L23.6 7.2L21.7334 5.8C20.1735 4.63546 18.28 4.0043 16.3334 4H15.1172C16.4234 2.72469 18.1745 2.00746 20 2H22V0H20C18.6565 0.00503422 17.331 0.309637 16.1201 0.891628C14.9091 1.47362 13.8432 2.31835 13 3.3643C12.1568 2.31835 11.0909 1.47362 9.87994 0.891628C8.669 0.309637 7.34352 0.00503422 6 0H4V2H6C7.82553 2.00746 9.57658 2.72469 10.8828 4H9.6665C7.71987 4.0043 5.82638 4.63546 4.2665 5.8L2.4 7.2L3.6 8.8L5.4668 7.4C6.67982 6.49382 8.15267 6.00287 9.6668 6H11.1976L9.7737 6.9492C8.61183 7.72192 7.65922 8.77012 7.00077 10.0004C6.34233 11.2306 5.99852 12.6046 6 14H8C7.99887 12.934 8.26151 11.8843 8.7645 10.9444C9.26749 10.0045 9.99522 9.20369 10.8828 8.6133L12 7.8687V8C12 16.9438 13.4116 21.7646 14.3611 24H0V26H28V24H16.57Z" fill="white"/>
</svg>
