<svg width="28" height="28" viewBox="0 0 28 28" fill="none" xmlns="http://www.w3.org/2000/svg">
<path d="M28 16V14H22V24H24V20H27V18H24V16H28Z" fill="white"/>
<path d="M17 24H13V14H17C17.7954 14.0009 18.5579 14.3172 19.1204 14.8796C19.6828 15.4421 19.9991 16.2046 20 17V21C19.9991 21.7954 19.6828 22.5579 19.1204 23.1204C18.5579 23.6828 17.7954 23.9991 17 24ZM15 22H17C17.2651 21.9997 17.5193 21.8943 17.7068 21.7068C17.8943 21.5193 17.9997 21.2651 18 21V17C17.9997 16.7349 17.8943 16.4807 17.7068 16.2932C17.5193 16.1057 17.2651 16.0003 17 16H15V22Z" fill="white"/>
<path d="M9 14H4V24H6V21H9C9.53021 20.9993 10.0385 20.7883 10.4134 20.4134C10.7883 20.0385 10.9993 19.5302 11 19V16C10.9994 15.4698 10.7885 14.9614 10.4135 14.5865C10.0386 14.2115 9.53025 14.0006 9 14V14ZM6 19V16H9L9.001 19H6Z" fill="white"/>
<path d="M20 12.0003V8.00034C20.0036 7.86891 19.9786 7.73827 19.9268 7.61742C19.875 7.49657 19.7976 7.38839 19.7 7.30034L12.7 0.300344C12.612 0.202672 12.5038 0.125268 12.3829 0.0734729C12.2621 0.0216783 12.1314 -0.00327225 12 0.000343724H2C1.47005 0.00190021 0.962242 0.213114 0.587506 0.58785C0.21277 0.962585 0.00155649 1.47039 0 2.00034V26.0003C0 26.5308 0.210714 27.0395 0.585786 27.4146C0.960859 27.7896 1.46957 28.0003 2 28.0003H18V26.0003H2V2.00034H10V8.00034C10.0016 8.5303 10.2128 9.0381 10.5875 9.41284C10.9622 9.78757 11.47 9.99879 12 10.0003H18V12.0003H20ZM12 8.00034V2.40034L17.6 8.00034H12Z" fill="white"/>
</svg>
