<svg width="24" height="28" viewBox="0 0 24 28" fill="none" xmlns="http://www.w3.org/2000/svg">
<path d="M16 8H14V10H16V8Z" fill="white"/>
<path d="M10 8H8V10H10V8Z" fill="white"/>
<path d="M22 18H17V16H18C18.5302 15.9994 19.0386 15.7885 19.4135 15.4135C19.7885 15.0386 19.9994 14.5302 20 14V10H22V8H20V6C19.9994 5.46975 19.7885 4.9614 19.4135 4.58646C19.0386 4.21152 18.5302 4.00061 18 4H16V0H14V4H10V0H8V4H6C5.46975 4.00061 4.9614 4.21152 4.58646 4.58646C4.21152 4.9614 4.00061 5.46975 4 6V8H2V10H4V14C4.00061 14.5302 4.21152 15.0386 4.58646 15.4135C4.9614 15.7885 5.46975 15.9994 6 16H7V18H2C1.46975 18.0006 0.9614 18.2115 0.586459 18.5865C0.211518 18.9614 0.000608734 19.4698 0 20V28H2V20H22V28H24V20C23.9994 19.4698 23.7885 18.9614 23.4135 18.5865C23.0386 18.2115 22.5302 18.0006 22 18ZM6 6H18V14H6V6ZM9 16H15V18H9V16Z" fill="white"/>
</svg>
