<svg width="24" height="28" viewBox="0 0 24 28" fill="none" xmlns="http://www.w3.org/2000/svg">
<path d="M22.3 18L21.391 26.611L20 18H18L16.609 26.611L15.7 18H14L15.36 28H17.64L19 19.626L20.36 28H22.64L24 18H22.3Z" fill="white"/>
<path d="M19.707 7.293L12.707 0.293C12.5195 0.105451 12.2652 5.66374e-05 12 0H2C1.46973 0.000529477 0.961329 0.211413 0.586371 0.586371C0.211413 0.961329 0.000529477 1.46973 0 2V26C0.000608734 26.5302 0.211518 27.0386 0.586459 27.4135C0.9614 27.7885 1.46975 27.9994 2 28H10V26H2V2H10V8C10.0005 8.53027 10.2114 9.03867 10.5864 9.41363C10.9613 9.78859 11.4697 9.99947 12 10H18V14H20V8C19.9999 7.73481 19.8946 7.48049 19.707 7.293ZM12 2.4141L17.5859 8H12V2.4141Z" fill="white"/>
</svg>
